PathFileType	4	(X/Y/Z)	c:/Users/goper/Files/vsCode/490R/osim_files/A04/A04_Slow_03.trc
DataRate	CameraRate	NumFrames	NumMarkers	Units                	OrigDataRate	OrigDataStartFrame	OrigNumFrames
120.00	120.00	7	36	mm	120.0	863	1380
                Frame#	Time	LPSIS			LASIS			LTH1			LTH2			LTH3			LTH4			LLFE			LMFE			LSH1			LSH2			LSH3			LSH4			LLMAL			LMMAL			LCAL			LMTP5			LTOE			LMTP1			RPSIS			RASIS			RTH1			RTH2			RTH3			RTH4			RLFE			RMFE			RSH1			RSH2			RSH3			RSH4			RLMAL			RMMAL			RCAL			RMTP1			RTOE			RMTP5		
		X1	Y1	Z1	X2	Y2	Z2	X3	Y3	Z3	X4	Y4	Z4	X5	Y5	Z5	X6	Y6	Z6	X7	Y7	Z7	X8	Y8	Z8	X9	Y9	Z9	X10	Y10	Z10	X11	Y11	Z11	X12	Y12	Z12	X13	Y13	Z13	X14	Y14	Z14	X15	Y15	Z15	X16	Y16	Z16	X17	Y17	Z17	X18	Y18	Z18	X19	Y19	Z19	X20	Y20	Z20	X21	Y21	Z21	X22	Y22	Z22	X23	Y23	Z23	X24	Y24	Z24	X25	Y25	Z25	X26	Y26	Z26	X27	Y27	Z27	X28	Y28	Z28	X29	Y29	Z29	X30	Y30	Z30	X31	Y31	Z31	X32	Y32	Z32	X33	Y33	Z33	X34	Y34	Z34	X35	Y35	Z35	X36	Y36	Z36

863	7.18333	-1428.73010	1067.07605	342.01834	-1655.48694	1031.26367	412.76532	-1697.71228	729.19141	450.60928	-1721.02771	691.67682	449.87082	-1750.61914	758.18488	439.90356	-1768.81873	716.32532	442.78952	-1794.40076	572.36029	438.93582	-1800.20923	571.10822	298.41129	-1761.98157	469.61563	444.12982	-1769.38928	427.08109	442.05426	-1822.60889	472.72958	428.37283	-1819.88660	429.12430	426.92380	-1748.79553	143.95023	405.81287	-1768.20337	145.20038	320.51498	-1680.80249	108.94083	352.71509	-1884.87439	78.65405	435.82516	-1930.84570	88.20943	372.35690	-1911.42847	75.20016	328.98730	-1421.96521	1055.33533	236.23933	-1638.80786	1027.28394	127.30147	-1489.51331	733.73541	109.41974	-1491.54761	691.79956	111.84037	-1550.89478	729.75372	98.37017	-1544.30249	683.04205	105.68539	-1522.09656	549.51825	135.61198	-1542.25073	545.42859	250.77907	-1434.59705	346.55801	153.10208	-1434.19312	299.17163	161.57759	-1493.96057	337.87268	142.47702	-1483.29822	291.63000	148.22197	-1433.42676	104.15431	158.54129	-1473.95203	114.07748	288.13223	-1370.54700	64.12060	243.14685	-1597.18066	56.18271	257.62271	-1616.09753	77.25288	208.39977	-1575.45532	51.25822	139.78729
864	7.19167	-1436.42712	1066.17102	342.60004	-1663.09106	1030.07874	413.36026	-1703.42810	727.21326	449.82208	-1726.61084	689.66174	449.32739	-1756.42004	756.09174	439.15262	-1774.46301	714.13135	442.22662	-1800.21924	570.02704	438.29352	-1806.46594	569.17963	297.79047	-1771.73621	466.16556	443.28329	-1780.91199	423.99118	441.28793	-1832.28210	471.64590	427.75839	-1831.71399	428.43530	426.37305	-1771.48706	140.30798	404.74185	-1791.14917	142.34969	319.49255	-1705.07727	102.60043	351.39624	-1909.95007	80.36118	435.16290	-1956.34998	92.67297	371.33911	-1936.97461	78.00517	328.41245	-1429.63684	1054.45386	236.79379	-1646.59534	1026.36475	128.08977	-1494.07776	733.94360	109.68571	-1495.96948	691.86102	112.25998	-1555.58765	729.30585	98.73689	-1548.66858	682.69611	106.16309	-1525.03357	549.35645	136.01437	-1545.11084	545.16431	251.25186	-1436.07581	346.89786	153.47141	-1435.57568	299.50693	161.84039	-1495.54700	337.92047	142.77740	-1484.72205	291.64328	148.48586	-1433.78857	104.48265	158.68706	-1474.32690	114.09004	288.18924	-1370.70764	64.48643	243.22313	-1597.33472	55.87558	257.63132	-1616.25647	77.00368	208.44492	-1575.55127	51.19928	139.83041
865	7.20000	-1444.12646	1065.13806	343.19742	-1670.63416	1028.61426	413.96732	-1708.95593	725.04260	448.99319	-1731.97620	687.39948	448.66315	-1762.04871	753.67090	438.41812	-1780.02759	711.78296	441.56870	-1805.27161	567.38733	437.49542	-1812.48792	567.14728	297.15161	-1781.63538	462.86688	442.56076	-1791.95325	420.86884	440.50400	-1841.60938	470.48764	427.17416	-1842.59241	427.24481	425.72742	-1793.61438	137.06891	403.60791	-1813.51208	139.98131	318.43915	-1728.88281	96.92265	349.92300	-1934.23535	82.38673	434.53497	-1980.01843	96.33853	371.08386	-1961.62134	81.22644	327.89139	-1437.17834	1053.55652	237.39395	-1652.54443	1025.14417	127.87881	-1499.00317	734.08154	110.04691	-1500.56042	691.98022	112.57808	-1560.50989	728.92468	99.16676	-1553.06470	682.34973	106.62608	-1528.11816	549.12238	136.34744	-1548.38220	544.75354	251.62395	-1437.79236	347.22083	153.78609	-1437.01086	299.81500	162.07814	-1497.53613	337.84863	142.75067	-1486.03442	291.60446	148.71143	-1434.15662	104.82492	158.77785	-1474.76318	114.11652	288.25989	-1370.89001	64.89223	243.26262	-1597.43420	55.55377	257.70166	-1616.41980	76.68087	208.50990	-1575.52515	51.11788	139.85637
866	7.20833	-1451.84558	1063.98059	343.80899	-1678.57520	1027.12170	414.62112	-1714.37976	722.70050	448.29590	-1736.44531	684.72980	447.57764	-1767.67700	750.99121	437.74469	-1785.35852	709.06171	441.03448	-1810.92566	564.80731	436.98404	-1818.38660	564.92120	296.49716	-1790.35156	459.49454	441.55603	-1802.65308	417.80609	439.64212	-1850.39490	469.17935	426.61011	-1853.50342	426.10629	425.07996	-1815.16235	134.30498	402.45297	-1835.72302	138.01495	317.33670	-1752.18677	91.88113	348.41751	-1957.53223	84.88053	433.88922	-2002.84082	100.46764	370.71643	-1985.45276	84.94508	327.37552	-1444.77930	1052.60571	238.03467	-1659.94983	1024.12134	128.46700	-1504.10339	734.08582	110.35986	-1505.07959	691.90601	113.03086	-1565.41882	728.44373	99.48103	-1557.67859	682.00018	106.95899	-1531.44519	548.94287	136.66707	-1551.72021	544.27032	251.98730	-1439.82239	347.51254	154.08369	-1438.63293	300.10266	162.40909	-1499.08838	337.84592	143.16116	-1488.29517	291.93954	148.18282	-1434.64209	105.16301	158.93787	-1475.30469	114.15070	288.33215	-1371.12439	65.28347	243.33501	-1596.97949	55.49706	258.21561	-1616.16638	76.19437	209.27412	-1575.64246	51.05300	139.88016
867	7.21667	-1459.61853	1062.82812	344.44110	-1686.47241	1025.41211	415.26263	-1719.58826	720.01160	447.45670	-1742.29175	682.07208	447.23044	-1772.93359	747.92029	437.00687	-1790.55945	706.05286	440.33661	-1815.73291	561.92163	436.29422	-1824.10168	562.63330	295.80981	-1798.83228	455.69437	440.61673	-1812.76929	414.84119	438.77521	-1858.89844	467.96042	426.07288	-1863.42236	425.63846	423.19797	-1835.90747	132.01556	401.19360	-1856.55884	136.66534	316.37317	-1774.57788	87.39161	346.84515	-1979.81067	87.82993	433.30664	-2024.59973	104.60773	370.27298	-2008.25806	88.99212	326.95871	-1452.57983	1051.47827	238.65048	-1667.69434	1022.97845	129.03827	-1509.25281	734.11346	110.76760	-1509.96509	691.92963	113.36897	-1570.48755	727.97272	99.84319	-1562.34998	681.59277	107.35349	-1534.87415	548.66632	136.93745	-1555.63696	543.81427	252.15636	-1441.84521	347.88257	154.37062	-1440.38281	300.52377	162.63647	-1500.99133	337.88083	143.33076	-1489.24292	291.83621	149.04898	-1435.07263	105.53401	159.05762	-1475.89807	114.27287	288.37350	-1371.34277	65.79451	243.37642	-1597.27942	55.12294	258.07840	-1616.33972	75.93195	209.32785	-1575.71143	50.94804	139.89996
868	7.22500	-1467.55664	1061.51978	345.12714	-1694.52380	1023.64978	415.85626	-1724.77332	717.30573	446.82040	-1747.11475	679.17108	446.40076	-1778.28796	744.83673	436.42770	-1795.48840	702.85571	439.70731	-1820.38306	558.93225	435.50137	-1829.97424	560.30060	295.77396	-1807.01599	452.24277	439.56598	-1822.42261	411.92386	437.82507	-1866.74182	466.57932	425.44971	-1872.35632	424.08997	422.34283	-1855.76624	130.09821	400.01984	-1876.66382	135.72609	315.34708	-1796.52258	83.38121	345.20374	-2001.06262	90.94244	432.77814	-2045.99658	110.11262	369.90347	-2030.03760	93.32948	326.61093	-1460.34607	1050.44226	239.39456	-1675.26892	1021.87933	129.61725	-1514.52734	734.15790	111.15241	-1514.85217	691.96936	113.75521	-1575.64954	727.51660	100.14126	-1567.09485	681.20850	107.68803	-1538.54077	548.39044	137.25905	-1559.60828	543.34912	252.26669	-1443.87976	348.26950	154.62723	-1442.15588	300.91461	162.82362	-1502.99524	337.84222	143.51062	-1491.10303	291.92282	149.25836	-1435.62048	106.02095	159.15607	-1476.42993	114.34843	288.39001	-1371.52808	66.27283	243.45107	-1597.41968	54.85067	258.08633	-1617.18555	75.73393	208.17760	-1575.79407	50.85574	139.92175
869	7.23333	-1475.62622	1060.13245	345.90430	-1702.51001	1021.70911	416.39545	-1729.87622	714.42590	446.17407	-1751.85510	676.09039	445.76266	-1783.66870	741.57745	435.95160	-1800.61987	699.59656	439.22360	-1824.61267	555.84412	434.72552	-1835.38623	557.79846	295.10574	-1815.67749	448.83231	439.16556	-1831.47998	408.97205	436.88898	-1874.33875	465.15634	424.96634	-1881.46753	422.39743	423.38867	-1874.92468	128.51770	398.85965	-1895.69568	135.19946	314.24002	-1817.49170	79.93350	343.64203	-2021.21899	94.18664	432.18042	-2065.75562	115.54956	370.04309	-2050.51074	97.97380	326.18118	-1468.10803	1049.25378	240.11407	-1683.08618	1020.77576	130.09767	-1519.97559	734.16968	111.57504	-1519.87219	691.97070	114.22076	-1580.95007	727.03064	100.43307	-1572.02551	680.82782	107.99503	-1542.34412	548.06860	137.49910	-1563.55334	542.82343	252.44913	-1446.08655	348.63486	154.91783	-1444.03967	301.21741	163.08128	-1505.12695	337.83841	143.69066	-1492.81775	292.03204	149.42776	-1436.27539	106.60242	159.40868	-1476.99670	114.40468	288.40176	-1371.78711	66.76701	243.54016	-1597.50903	54.52846	258.13107	-1616.85339	75.23727	209.17017	-1576.29089	49.72411	141.61302
